<?xml version="1.0" encoding="utf-8"?>
<!DOCTYPE svg PUBLIC "-//W3C//DTD SVG 1.0//EN" "http://www.w3.org/TR/2001/REC-SVG-20010904/DTD/svg10.dtd">
<svg version="1.0" xmlns="http://www.w3.org/2000/svg" width="60px" height="60px" viewBox="0 0 60 60" preserveAspectRatio="xMidYMid meet">
 <g fill="#ffffff">
  <path d="M0 30 l0 -30 30 0 30 0 0 30 0 30 -30 0 -30 0 0 -30z m31.73 13.52 c4.15 -0.55 5.11 -0.71 5.23 -0.89 0.05 -0.08 0.11 -0.51 0.11 -0.92 0 -0.84 -0.28 -1.31 -0.80 -1.31 -0.13 0 -0.32 -0.12 -0.40 -0.25 -0.19 -0.35 -0.17 -0.95 0.03 -0.95 0.08 0 0.12 -0.03 0.09 -0.07 -0.04 -0.03 -0.43 0.05 -0.87 0.19 -1.87 0.59 -7.12 0.71 -8.91 0.21 -0.43 -0.12 -0.80 -0.19 -0.84 -0.15 -0.04 0.03 0.17 0.13 0.48 0.21 0.29 0.08 0.60 0.24 0.67 0.37 0.09 0.16 0.13 0.17 0.15 0.04 0 -0.13 0.13 -0.16 0.60 -0.08 0.33 0.04 1.68 0.08 2.97 0.08 1.87 0 2.64 -0.05 3.72 -0.27 0.73 -0.16 1.41 -0.28 1.49 -0.28 0.08 0 0.15 0.20 0.15 0.45 0 0.51 0.09 0.47 -1.73 0.75 -0.55 0.09 -1.33 0.21 -1.73 0.28 -1.11 0.19 -3.97 0.31 -4.84 0.20 -0.75 -0.09 -0.76 -0.11 -0.77 -0.52 l-0.01 -0.43 -0.13 0.37 c-0.11 0.31 -0.20 0.37 -0.47 0.32 -0.39 -0.07 -0.57 0.29 -0.57 1.15 0 1.69 1.73 2.08 6.40 1.48z m19.39 -1.16 c0.28 -0.49 0.24 -1 -0.07 -1.20 -0.17 -0.11 -0.32 -0.05 -0.65 0.21 -0.83 0.69 -1.44 0.28 -0.80 -0.53 0.31 -0.40 0.25 -0.57 -0.08 -0.29 -0.37 0.31 -0.61 1.01 -0.45 1.32 0.20 0.36 0.61 0.33 1.09 -0.07 0.23 -0.19 0.51 -0.33 0.63 -0.31 0.32 0.07 0.33 0.49 0.03 0.83 -0.16 0.16 -0.24 0.35 -0.19 0.39 0.16 0.17 0.27 0.09 0.49 -0.35z m-41.44 -0.16 c0.05 -0.12 -0.05 -0.51 -0.21 -0.88 -0.36 -0.84 -0.28 -1.32 0.21 -1.32 0.76 0 1.35 0.75 1.21 1.56 -0.04 0.24 -0.05 0.44 -0.03 0.44 0.77 0 0.56 -1.29 -0.33 -2.05 -0.51 -0.41 -1.07 -0.45 -1.40 -0.08 -0.23 0.25 -0.24 0.33 -0.08 0.84 0.09 0.31 0.19 0.75 0.19 0.96 0.03 0.36 -0.01 0.40 -0.37 0.40 -0.31 0 -0.44 -0.09 -0.60 -0.40 -0.48 -0.93 -0.52 -0.97 -0.53 -0.49 0 0.67 0.61 1.23 1.33 1.23 0.36 0 0.57 -0.07 0.61 -0.20z m42.43 -2.09 c-0.08 -0.21 -1.16 -0.75 -1.73 -0.87 -0.40 -0.08 -0.43 -0.07 -0.25 0.13 0.09 0.12 0.25 0.23 0.33 0.23 0.08 0 0.45 0.15 0.81 0.32 0.77 0.37 0.91 0.40 0.84 0.19z m-42.68 -1.52 c0.61 -0.39 0.55 -1.29 -0.12 -1.57 -0.73 -0.31 -1.84 0.17 -1.84 0.80 0 0.92 1.05 1.33 1.96 0.77z m43.25 -0.35 c0.48 -0.59 0.23 -1.37 -0.55 -1.77 -0.21 -0.11 -0.51 -0.20 -0.65 -0.20 -0.37 0 -0.81 0.63 -0.81 1.15 0 0.24 -0.07 0.48 -0.13 0.52 -0.27 0.16 0.03 0.35 0.44 0.28 0.24 -0.04 0.64 0.01 0.89 0.11 0.25 0.11 0.49 0.19 0.51 0.20 0.03 0 0.16 -0.12 0.31 -0.28z m-30.99 -1.40 c-0.56 -0.96 -0.69 -1.49 -0.68 -2.77 0 -1.43 0.17 -2.08 1.11 -4.12 0.23 -0.51 0.40 -0.93 0.37 -0.96 -0.07 -0.07 -0.85 1.68 -1.28 2.81 -0.28 0.76 -0.33 1.17 -0.35 2.27 0 1.17 0.04 1.43 0.36 2.11 0.20 0.41 0.40 0.76 0.44 0.76 0.04 0 0.05 -0.04 0.03 -0.09z m18.48 -1.33 c0.67 -1.87 0.33 -3.28 -1.65 -6.97 -0.49 -0.93 -1.05 -2.31 -1.05 -2.61 0 -0.57 0.67 0.03 1.92 1.71 1.37 1.85 2.44 2.63 4.08 2.92 1.17 0.20 1.88 0.01 2.61 -0.73 0.76 -0.76 0.95 -1.41 0.68 -2.36 -0.51 -1.72 -2 -2.63 -5.88 -3.57 -1.97 -0.48 -3.49 -1.16 -4.24 -1.91 -0.29 -0.29 -0.47 -0.40 -0.39 -0.25 0.08 0.15 0.15 0.37 0.15 0.52 0 0.23 -0.11 0.25 -0.96 0.24 -1.52 0 -2.63 0.59 -3.20 1.71 l-0.27 0.52 0.45 0.61 c0.40 0.56 0.44 0.69 0.44 1.61 0 0.75 0.07 1.11 0.24 1.37 0.25 0.39 1.04 1.15 1.40 1.35 0.41 0.24 1.84 0.47 2.91 0.48 1.85 0 2.07 0.17 2.59 2.01 0.39 1.40 0.36 2.65 -0.08 3.59 -0.19 0.40 -0.41 0.83 -0.49 0.95 -0.09 0.11 -0.01 0.04 0.17 -0.17 0.19 -0.20 0.44 -0.65 0.57 -1z m-31.31 0.16 c0.43 -0.41 0.43 -0.89 -0.01 -1.36 l-0.35 -0.37 0.21 0.36 c0.57 0.97 -0.15 1.76 -1.19 1.28 -0.39 -0.17 -0.53 -0.60 -0.39 -1.07 0.08 -0.27 0.07 -0.28 -0.13 -0.12 -0.25 0.21 -0.28 0.81 -0.04 1.11 0.47 0.59 1.40 0.68 1.89 0.17z m43.85 -0.47 c0.28 -0.05 0.56 -0.19 0.61 -0.27 0.05 -0.09 0.08 -0.67 0.05 -1.28 -0.04 -0.97 -0.01 -1.12 0.19 -1.12 0.16 -0.01 0.11 -0.08 -0.15 -0.21 -0.25 -0.13 -0.65 -0.19 -1.27 -0.16 -1.01 0.04 -1.21 0.28 -0.29 0.35 0.99 0.07 1.69 0.96 0.75 0.96 -0.71 0 -1.68 0.16 -1.68 0.28 0 0.05 0.44 0.12 0.96 0.15 0.92 0.04 0.97 0.05 1.09 0.40 0.07 0.20 0.09 0.40 0.05 0.44 -0.04 0.04 -0.40 0.11 -0.79 0.15 -1.15 0.11 -1.40 0.19 -1.17 0.33 0.24 0.15 0.97 0.15 1.64 -0.01z m-18.52 -1.61 c0.33 -0.08 0.65 -0.23 0.73 -0.32 0.08 -0.09 -0.16 -0.05 -0.64 0.11 -0.88 0.29 -1.97 0.25 -2.52 -0.11 -0.17 -0.12 -0.36 -0.19 -0.40 -0.16 -0.08 0.08 0.40 0.36 0.88 0.51 0.51 0.15 1.29 0.13 1.95 -0.03z m-25.29 -0.72 c0.15 -0.13 -0.09 -0.21 -0.85 -0.27 -0.83 -0.07 -1.39 0.03 -1.39 0.20 0 0.07 0.11 0.15 0.24 0.19 0.27 0.08 1.89 -0.01 2 -0.12z m9.96 -0.32 c0.93 -0.41 1.35 -1.07 2.60 -4.05 0.60 -1.43 1.13 -2.23 1.47 -2.23 0.16 0 0.27 0.09 0.27 0.23 0 0.56 0.13 -0.05 0.40 -1.80 0.16 -1.05 0.32 -2.01 0.35 -2.13 0.07 -0.20 0.05 -0.21 -0.11 -0.01 -0.25 0.32 -0.91 0.61 -2.27 1.07 -5 1.63 -7.29 4.13 -6.44 7.01 0.25 0.84 0.68 1.48 1.25 1.87 0.57 0.39 1.71 0.41 2.48 0.05z m12.07 -0.15 c-0.24 -0.45 -0.13 -0.65 0.61 -1.21 1.24 -0.92 1.41 -1.95 0.40 -2.49 -0.64 -0.33 -1.89 -0.28 -2.63 0.12 -0.51 0.28 -0.59 0.39 -0.63 0.81 -0.05 0.57 0.43 1.20 1.37 1.80 0.65 0.41 0.68 0.48 0.43 0.99 -0.17 0.32 -0.17 0.33 0.19 0.28 0.32 -0.05 0.36 -0.09 0.25 -0.29z m-22.25 -1.19 c0.44 -0.45 0.53 -1.20 0.17 -1.49 -0.19 -0.15 -0.20 -0.12 -0.12 0.31 0.12 0.63 -0.01 1.04 -0.35 1.04 -0.13 0 -0.25 -0.01 -0.25 -0.03 0 -0.03 -0.12 -0.37 -0.25 -0.77 -0.19 -0.56 -0.31 -0.75 -0.53 -0.77 -0.21 -0.04 -0.33 0.07 -0.48 0.43 -0.11 0.25 -0.20 0.53 -0.20 0.60 0 0.24 0.68 0.93 0.97 0.99 0.57 0.11 0.65 0.09 1.04 -0.29z m43.89 -0.35 c1.05 -0.13 1.04 -0.44 0 -0.36 -1 0.08 -1.51 0.25 -1.24 0.43 0.11 0.08 0.27 0.11 0.35 0.08 0.08 -0.03 0.48 -0.09 0.89 -0.15z m-0.37 -1.40 c0.64 -0.01 1.17 -0.87 0.72 -1.15 -0.08 -0.04 -0.12 -0.27 -0.09 -0.48 l0.07 -0.40 -0.68 0.08 c-1.64 0.21 -2.35 0.72 -0.89 0.64 0.92 -0.05 1.39 0.13 1.32 0.53 -0.03 0.20 -0.23 0.33 -0.79 0.51 -0.87 0.27 -1.08 0.37 -0.99 0.53 0.04 0.05 0.29 0.03 0.56 -0.08 0.28 -0.09 0.63 -0.17 0.77 -0.19z m-43.13 -1.13 c0.39 -0.20 0.45 -0.35 0.59 -1.29 0.07 -0.53 -0.05 -0.64 -0.69 -0.64 -0.20 0 -0.77 -0.16 -1.29 -0.33 -0.51 -0.19 -1.05 -0.33 -1.20 -0.33 -0.25 0 -0.25 0 0 0.19 0.15 0.09 0.44 0.21 0.65 0.27 0.31 0.08 0.36 0.15 0.31 0.39 -0.05 0.16 -0.12 0.44 -0.16 0.63 -0.11 0.44 0.33 1.03 0.91 1.19 0.24 0.07 0.44 0.13 0.47 0.13 0.03 0.01 0.21 -0.08 0.43 -0.19z m18.11 -0.85 l0.32 -0.08 -0.29 -0.37 c-0.16 -0.20 -0.39 -0.36 -0.51 -0.35 -0.16 0 -0.13 0.04 0.08 0.13 0.20 0.07 0.29 0.21 0.27 0.35 -0.05 0.31 -0.43 0.37 -0.68 0.12 -0.17 -0.17 -0.21 -0.17 -0.27 -0.01 -0.05 0.12 0.03 0.20 0.21 0.24 0.41 0.08 0.52 0.08 0.87 -0.03z m24.76 -1.80 c0.83 -0.63 0.99 -0.81 0.83 -0.91 -0.33 -0.17 -3.09 -0.56 -3.35 -0.47 -0.37 0.15 -0.11 0.36 0.45 0.36 0.45 0 0.53 0.05 0.79 0.53 0.36 0.69 0.35 0.85 -0.05 1.12 -0.19 0.12 -0.33 0.31 -0.33 0.43 0 0.17 0.04 0.17 0.32 -0.04 0.17 -0.13 0.79 -0.60 1.35 -1.03z m-41.53 -0.48 c0.15 -0.15 0.27 -0.40 0.27 -0.57 0 -0.16 0.09 -0.44 0.21 -0.60 0.20 -0.28 0.19 -0.29 -0.23 -0.29 -0.24 0 -0.68 -0.15 -0.99 -0.33 -0.53 -0.31 -0.57 -0.31 -0.77 -0.09 -0.37 0.41 -0.48 0.87 -0.29 1.32 0.33 0.80 1.27 1.11 1.80 0.57z m1.32 -2.61 c0.17 -0.12 0.39 -0.43 0.49 -0.67 0.11 -0.25 0.25 -0.45 0.33 -0.45 0.11 0 0.09 -0.07 -0.01 -0.20 -0.09 -0.11 -0.24 -0.20 -0.32 -0.20 -0.08 0 -0.65 -0.39 -1.28 -0.87 -0.61 -0.48 -1.17 -0.87 -1.23 -0.87 -0.25 0 -0.07 0.29 0.36 0.56 0.51 0.33 0.57 0.52 0.25 0.79 -0.56 0.47 -0.48 1.27 0.19 1.81 0.43 0.36 0.79 0.39 1.21 0.09z m36.20 -1.33 c0.05 -0.12 0.04 -0.51 0 -0.87 -0.08 -0.64 -0.08 -0.65 0.27 -0.65 0.25 0 0.36 0.08 0.43 0.33 0.04 0.19 0.16 0.33 0.27 0.33 0.24 0 0.24 -0.07 -0.03 -0.48 -0.29 -0.44 -0.97 -0.79 -1.16 -0.60 -0.07 0.07 -0.12 0.49 -0.11 0.95 0.03 0.76 0.01 0.80 -0.29 0.80 -0.24 0 -0.37 -0.11 -0.49 -0.40 -0.09 -0.21 -0.21 -0.40 -0.28 -0.40 -0.23 0 -0.12 0.39 0.23 0.79 0.39 0.47 1.03 0.57 1.17 0.20z m-12.05 -0.31 c-1.13 -1.61 -3.85 -2.79 -6.07 -2.64 -0.59 0.04 -1.21 0.13 -1.40 0.21 l-0.33 0.16 0.33 -0.08 c2.49 -0.52 5.28 0.25 6.91 1.93 0.87 0.89 0.95 0.95 0.56 0.41z m-21.93 -1.09 c0.32 -0.28 0.47 -0.53 0.47 -0.77 0 -0.32 -0.03 -0.31 -0.31 0.19 -0.24 0.43 -0.39 0.55 -0.73 0.57 -0.51 0.05 -0.52 -0.05 -0.16 -0.77 0.32 -0.63 0.35 -1.04 0.05 -1.16 -0.55 -0.20 -1.36 0.72 -1.17 1.33 0.13 0.45 0.73 1.03 1.08 1.03 0.16 0 0.51 -0.19 0.77 -0.41z m32.32 -0.71 c0.35 -0.19 0.68 -0.71 0.68 -1.07 0 -0.09 -0.12 -0.29 -0.27 -0.45 -0.41 -0.44 -1.19 -0.40 -1.63 0.08 -0.49 0.53 -0.56 0.85 -0.23 1.27 0.31 0.41 0.85 0.47 1.44 0.17z m-2.24 -1.91 c0.24 -0.36 0.60 -0.84 0.81 -1.08 0.48 -0.56 0.83 -1.23 0.64 -1.23 -0.08 0 -0.25 0.17 -0.37 0.40 -0.15 0.25 -0.33 0.40 -0.52 0.40 -0.17 0 -0.31 -0.05 -0.31 -0.11 0 -0.16 -0.61 -0.43 -0.99 -0.43 -0.37 0 -1.15 0.81 -1.15 1.20 0 0.35 0.60 1.03 1 1.12 0.19 0.05 0.33 0.15 0.33 0.21 0 0.24 0.12 0.13 0.55 -0.49z m-27.07 -0.85 c-0.36 -0.48 -0.35 -0.60 0.04 -0.85 1.20 -0.79 0.56 -2.37 -0.79 -1.93 -0.25 0.08 -0.56 0.24 -0.67 0.36 -0.19 0.17 -0.17 0.24 0.05 0.61 0.13 0.24 0.39 0.69 0.56 1.03 0.43 0.85 0.96 1.55 1.03 1.35 0.03 -0.09 -0.07 -0.35 -0.23 -0.56z m2.57 -1.43 c-0.29 -0.81 -0.16 -1.40 0.32 -1.47 0.16 -0.03 0.29 0.01 0.29 0.09 0 0.08 0.07 0.15 0.13 0.15 0.20 0 0.16 -0.48 -0.05 -0.65 -0.15 -0.12 -0.27 -0.08 -0.59 0.19 -0.21 0.19 -0.52 0.33 -0.68 0.33 -0.36 0 -0.35 0.07 0.07 1.01 0.57 1.29 0.92 1.53 0.51 0.35z m20.01 -1.17 c0.21 -0.51 0.20 -0.53 -0.08 -0.75 -0.47 -0.39 -1.20 -0.31 -1.65 0.16 -0.68 0.72 -0.37 1.73 0.53 1.73 0.24 0 0.52 0.09 0.61 0.21 0.16 0.20 0.20 0.16 0.28 -0.31 0.04 -0.29 0.19 -0.76 0.31 -1.05z m-16.57 0.52 c0.73 -0.84 0.03 -2.39 -0.91 -2.04 -0.37 0.15 -0.72 0.64 -0.72 1.04 0 0.37 0.33 1.04 0.56 1.13 0.37 0.15 0.88 0.08 1.07 -0.13z m12.29 -0.89 c0.05 -0.25 0.21 -0.61 0.36 -0.80 0.33 -0.43 0.92 -0.48 0.92 -0.09 0 0.41 0.25 0.47 0.43 0.08 0.20 -0.45 0 -0.65 -0.65 -0.63 -0.27 0.01 -0.53 -0.05 -0.60 -0.15 -0.07 -0.11 -0.13 -0.11 -0.23 -0.03 -0.17 0.17 -0.68 2.03 -0.59 2.12 0.15 0.13 0.28 -0.05 0.36 -0.51z m-9.97 -0.08 c-0.04 -0.29 -0.12 -0.77 -0.16 -1.05 -0.08 -0.49 -0.07 -0.53 0.27 -0.63 0.47 -0.11 0.44 -0.32 -0.05 -0.32 -0.25 0 -0.44 -0.09 -0.53 -0.27 -0.20 -0.37 -0.43 -0.33 -0.32 0.05 0.05 0.25 0.01 0.33 -0.27 0.40 -0.47 0.12 -0.44 0.35 0.04 0.35 0.37 0 0.40 0.04 0.55 0.77 0.21 1.08 0.27 1.23 0.43 1.23 0.09 0 0.11 -0.19 0.05 -0.53z m8.57 -0.05 c0.16 -0.17 0.32 -0.52 0.37 -0.79 0.05 -0.39 0.01 -0.53 -0.27 -0.81 -0.55 -0.55 -1.25 -0.41 -1.63 0.32 -0.27 0.51 -0.25 0.64 0.07 1.17 0.33 0.55 0.99 0.60 1.45 0.11z m-5.21 -0.11 c0.33 -0.28 0.15 -0.35 -0.43 -0.16 -0.45 0.16 -0.67 0.17 -0.87 0.05 -0.45 -0.23 -0.33 -0.47 0.43 -0.81 0.56 -0.25 0.69 -0.39 0.69 -0.65 0 -0.45 -0.60 -0.67 -1.11 -0.40 -0.48 0.27 -0.87 1.07 -0.75 1.53 0.16 0.64 1.44 0.92 2.03 0.44z m2.04 -0.13 c0.05 -1.73 0.03 -1.64 0.43 -1.68 0.48 -0.05 0.47 -0.28 -0.04 -0.37 -0.31 -0.07 -0.40 -0.16 -0.40 -0.40 0 -0.17 -0.05 -0.32 -0.13 -0.32 -0.07 0 -0.13 0.15 -0.13 0.33 0 0.27 -0.07 0.33 -0.32 0.33 -0.49 0 -0.53 0.23 -0.07 0.39 l0.43 0.15 -0.09 0.84 c-0.04 0.47 -0.04 0.89 0.01 0.93 0.17 0.17 0.31 0.09 0.32 -0.20z"/>
  <path d="M8.03 38.37 c-0.09 -0.09 -0.16 -0.32 -0.16 -0.52 0 -0.41 0.52 -0.71 1.15 -0.63 0.33 0.04 0.39 0.11 0.43 0.51 0.04 0.32 -0.03 0.51 -0.19 0.63 -0.29 0.21 -1.01 0.23 -1.23 0.01z"/>
  <path d="M51.93 38 c-0.15 -0.07 -0.43 -0.12 -0.63 -0.12 -0.33 -0.01 -0.37 -0.07 -0.37 -0.45 0 -0.53 0.20 -0.76 0.69 -0.76 0.41 0 1.04 0.52 1.04 0.85 0 0.56 -0.21 0.71 -0.73 0.48z"/>
  <path d="M33.87 28.20 c-0.09 -0.11 -0.20 -0.47 -0.24 -0.80 -0.05 -0.49 -0.03 -0.60 0.16 -0.60 0.13 0 0.21 -0.12 0.21 -0.33 0 -0.27 0.07 -0.33 0.33 -0.33 0.27 0 0.33 0.07 0.33 0.33 0 0.21 0.08 0.33 0.20 0.33 0.27 0 0.27 0.91 -0.01 1.31 -0.23 0.33 -0.75 0.39 -0.99 0.09z"/>
  <path d="M7.15 30.85 c-0.16 -0.41 -0.09 -0.99 0.13 -0.99 0.19 0 0.59 0.72 0.59 1.07 0 0.21 -0.63 0.16 -0.72 -0.08z"/>
  <path d="M7.75 27.81 c-0.31 -0.33 -0.31 -0.72 0.03 -1.12 0.16 -0.20 1.09 -0.11 1.40 0.13 0.20 0.17 0.21 0.69 0.03 1.05 -0.21 0.39 -1.07 0.35 -1.45 -0.07z"/>
  <path d="M51.01 25.39 c-0.17 -0.47 -0.09 -0.59 0.45 -0.59 0.59 0 0.69 0.21 0.29 0.57 -0.31 0.28 -0.64 0.29 -0.75 0.01z"/>
  <path d="M9.07 24.80 c-0.36 -0.36 -0.37 -1.20 -0.01 -1.20 0.36 0 1.48 0.49 1.48 0.65 0 0.07 -0.05 0.28 -0.13 0.47 -0.11 0.28 -0.21 0.35 -0.60 0.35 -0.29 0 -0.57 -0.11 -0.73 -0.27z"/>
  <path d="M10.49 22.16 c-0.32 -0.35 -0.29 -1 0.05 -1.31 0.27 -0.24 0.28 -0.24 0.76 0.04 0.67 0.37 0.77 0.57 0.55 1.05 -0.24 0.49 -1 0.61 -1.36 0.21z"/>
  <path d="M12.40 19.05 c0 -0.55 0.21 -0.92 0.53 -0.92 0.32 0 0.33 0.11 0.05 0.80 -0.25 0.64 -0.59 0.72 -0.59 0.12z"/>
  <path d="M45.09 18.91 c-0.27 -0.27 -0.17 -0.73 0.19 -1.03 0.61 -0.48 1.25 -0.31 1.25 0.35 0 0.64 -1 1.12 -1.44 0.68z"/>
  <path d="M42.75 16.99 c-0.51 -0.49 -0.05 -1.52 0.65 -1.52 0.33 0 0.87 0.41 0.87 0.67 0 0.27 -0.39 0.91 -0.60 0.99 -0.37 0.13 -0.71 0.09 -0.92 -0.13z"/>
  <path d="M16.11 14.92 c-0.43 -0.75 -0.27 -1.05 0.55 -1.05 0.65 0 0.89 0.57 0.47 1.17 -0.29 0.43 -0.73 0.37 -1.01 -0.12z"/>
  <path d="M37.87 14.47 c-0.19 -0.23 -0.08 -0.83 0.23 -1.16 0.12 -0.15 0.40 -0.24 0.67 -0.24 0.51 0 0.56 0.19 0.28 1.08 -0.13 0.47 -0.20 0.52 -0.57 0.52 -0.24 0 -0.51 -0.09 -0.60 -0.20z"/>
  <path d="M21.95 14.05 c-0.25 -0.24 -0.28 -1.13 -0.05 -1.36 0.24 -0.24 0.75 -0.19 0.91 0.09 0.23 0.44 0.16 1.19 -0.12 1.35 -0.36 0.19 -0.49 0.17 -0.73 -0.08z"/>
  <path d="M32.76 13.09 c-0.63 -0.68 0.31 -1.97 0.95 -1.33 0.28 0.28 0.20 1.13 -0.13 1.36 -0.39 0.28 -0.55 0.27 -0.81 -0.03z"/>
  <path d="M27.07 11.87 c0 -0.28 0.36 -0.53 0.79 -0.53 0.35 0 0.37 0.37 0.05 0.61 -0.37 0.28 -0.84 0.24 -0.84 -0.08z"/>
 </g>
 <g fill="#000000">
  <path d="M26.11 40.99 c-0.05 -0.04 0 -0.28 0.11 -0.52 0.21 -0.51 0.21 -0.51 -0.69 -0.80 -1.08 -0.36 -2.25 -1 -3.11 -1.68 -0.60 -0.49 -0.91 -0.87 -1.24 -1.55 -0.41 -0.85 -0.44 -0.99 -0.44 -2.31 0 -1.56 0.21 -2.35 1.16 -4.40 0.51 -1.09 1.17 -2.89 1.17 -3.19 0 -0.08 -0.07 -0.15 -0.13 -0.15 -0.21 0 -0.84 1.05 -1.33 2.23 -1.27 3.03 -1.67 3.64 -2.64 4.08 -0.72 0.31 -1.96 0.33 -2.51 0.05 -1.28 -0.67 -2.01 -2.95 -1.47 -4.57 0.64 -1.89 2.91 -3.55 6.47 -4.72 1.92 -0.63 2.08 -0.73 2.57 -1.72 0.53 -1.05 1.77 -2.35 2.69 -2.80 3.37 -1.64 7.57 -0.65 9.55 2.25 0.83 1.23 2.20 1.95 4.89 2.59 2.64 0.63 4.27 1.35 5.03 2.24 0.48 0.56 0.88 1.57 0.88 2.23 -0.01 0.93 -1 2.13 -1.96 2.40 -0.68 0.20 -1.15 0.17 -2.17 -0.07 -1.47 -0.35 -2.45 -1.13 -4.01 -3.25 -0.69 -0.93 -1.32 -1.61 -1.32 -1.43 0 0.20 0.64 1.73 1.05 2.49 2 3.72 2.35 5.25 1.65 7.25 -0.36 1.03 -1.91 2.55 -3.31 3.21 -0.59 0.29 -1.09 0.55 -1.13 0.56 -0.03 0.03 0.01 0.24 0.11 0.47 0.08 0.24 0.15 0.44 0.12 0.45 -0.15 0.12 -1.03 0.17 -1.03 0.05 0 -0.07 0.09 -0.13 0.20 -0.13 0.13 0 0.20 -0.13 0.20 -0.35 0 -0.29 -0.04 -0.33 -0.29 -0.27 -1.69 0.45 -4.13 0.63 -6.75 0.48 -1.68 -0.09 -1.76 -0.07 -1.76 0.57 0 0.25 -0.07 0.36 -0.24 0.36 -0.13 0 -0.28 -0.04 -0.32 -0.08z m6.72 -1.40 c3.32 -0.36 5.96 -1.87 6.93 -3.95 0.37 -0.79 0.40 -0.95 0.33 -1.88 -0.09 -1.43 -0.52 -2.69 -1.12 -3.32 -0.51 -0.53 -1.64 -2.77 -2.05 -4.09 -0.15 -0.44 -0.32 -1.19 -0.39 -1.67 -0.23 -1.65 -0.27 -1.95 -0.31 -2.36 -0.08 -1 -1.59 -2.43 -3.27 -3.12 -2.77 -1.16 -5.52 -0.67 -7.51 1.35 -1.11 1.12 -1.33 1.69 -1.72 4.21 -0.35 2.35 -0.63 3.36 -1.45 5.27 -1 2.31 -1.15 2.83 -1.15 4.11 0 0.99 0.05 1.24 0.41 2.01 0.49 1.03 1.24 1.73 2.56 2.43 0.81 0.43 2.40 0.92 3.43 1.07 0.85 0.12 3.99 0.08 5.29 -0.05z"/>
  <path d="M26.93 34.28 c-0.31 -0.05 -0.48 -0.16 -0.51 -0.33 -0.05 -0.21 0 -0.23 0.53 -0.13 1.53 0.28 2.72 -0.24 3.36 -1.47 l0.20 -0.40 -0.64 -0.43 c-1.04 -0.69 -1.37 -1.17 -1.32 -1.91 0.04 -0.57 0.08 -0.63 0.64 -0.93 0.75 -0.41 2.21 -0.48 2.88 -0.12 0.92 0.49 0.89 1.76 -0.04 2.47 -1.21 0.95 -1.16 0.88 -0.92 1.33 0.49 0.96 1.77 1.31 3.13 0.84 0.60 -0.20 0.89 -0.24 0.99 -0.15 0.33 0.33 -0.96 0.81 -2.13 0.81 -0.84 -0.01 -1.64 -0.31 -1.95 -0.73 -0.33 -0.44 -0.49 -0.43 -0.92 0.12 -0.63 0.79 -2.12 1.25 -3.31 1.03z"/>
  <path d="M26.43 29.11 c-0.28 -0.11 -0.56 -0.79 -0.56 -1.35 0 -1.11 0.92 -1.59 1.52 -0.79 0.72 0.96 0.01 2.53 -0.96 2.13z m0.77 -0.56 c0.07 -0.15 0.13 -0.43 0.13 -0.61 0 -0.29 -0.04 -0.35 -0.23 -0.27 -0.31 0.12 -0.44 0.12 -0.76 0 -0.21 -0.09 -0.24 -0.07 -0.15 0.35 0.05 0.25 0.16 0.53 0.23 0.63 0.20 0.24 0.61 0.20 0.77 -0.09z"/>
  <path d="M33.77 28.56 c-0.08 -0.05 -0.25 -0.35 -0.37 -0.67 -0.24 -0.59 -0.20 -1.29 0.11 -1.77 0.23 -0.36 0.95 -0.47 1.36 -0.20 0.63 0.41 0.72 1.83 0.16 2.45 -0.27 0.29 -0.92 0.40 -1.25 0.19z m0.95 -0.59 c0.12 -0.16 0.21 -0.47 0.21 -0.68 0 -0.32 -0.04 -0.37 -0.23 -0.29 -0.31 0.12 -0.44 0.12 -0.76 0 -0.23 -0.11 -0.25 -0.07 -0.17 0.39 0.15 0.88 0.57 1.13 0.95 0.59z"/>
 </g>
 <g fill="#000060">
  <path d="M33.67 49.88 c-0.04 -0.08 -0.05 -0.27 0 -0.40 0.07 -0.20 0 -0.28 -0.32 -0.35 -0.55 -0.12 -0.73 -0.68 -0.44 -1.29 0.19 -0.37 0.31 -0.45 0.75 -0.48 l0.52 -0.04 -0.09 1.24 c-0.09 1.20 -0.23 1.61 -0.41 1.32z m0.13 -1.63 c0.11 -0.63 0.05 -0.71 -0.32 -0.59 -0.52 0.16 -0.55 1.13 -0.03 1.13 0.20 0 0.28 -0.12 0.35 -0.55z"/>
  <path d="M22.51 49.05 c-0.24 -0.13 -0.33 -0.52 -0.13 -0.52 0.05 0 0.20 0.09 0.33 0.20 0.36 0.27 1.05 0.01 1 -0.37 -0.03 -0.19 -0.21 -0.32 -0.67 -0.45 -0.53 -0.15 -0.64 -0.24 -0.64 -0.49 0 -0.59 1.27 -1.03 1.44 -0.49 0.04 0.13 -0.03 0.16 -0.27 0.11 -0.37 -0.09 -0.87 0.19 -0.72 0.41 0.05 0.09 0.27 0.16 0.48 0.16 0.48 0 0.87 0.51 0.75 0.97 -0.12 0.52 -1.04 0.80 -1.57 0.48z"/>
  <path d="M24.77 49.09 c-0.13 -0.03 -0.28 -0.19 -0.32 -0.37 -0.20 -0.81 0.44 -1.56 1.09 -1.27 0.28 0.12 0.32 0.21 0.27 0.52 -0.05 0.20 -0.03 0.55 0.04 0.76 0.11 0.40 0.11 0.40 -0.37 0.40 -0.27 0 -0.59 -0.01 -0.71 -0.04z m0.69 -0.80 c0 -0.28 -0.04 -0.55 -0.08 -0.60 -0.15 -0.15 -0.47 0.07 -0.59 0.39 -0.17 0.44 -0.03 0.72 0.35 0.72 0.28 0 0.32 -0.07 0.32 -0.51z"/>
  <path d="M26.36 48.96 c-0.49 -0.53 -0.12 -1.49 0.57 -1.49 0.67 0 0.92 0.95 0.40 1.47 -0.33 0.33 -0.69 0.35 -0.97 0.03z m0.84 -0.43 c0.11 -0.19 0.11 -0.35 0 -0.53 -0.28 -0.52 -0.67 -0.25 -0.67 0.48 0 0.40 0.45 0.44 0.67 0.05z"/>
  <path d="M31.15 48.91 c-0.27 -0.37 -0.27 -0.55 -0.01 -1.04 0.16 -0.31 0.31 -0.40 0.59 -0.40 0.21 0 0.45 0.09 0.55 0.20 0.21 0.25 0.09 1.25 -0.16 1.41 -0.32 0.20 -0.76 0.12 -0.96 -0.17z m0.77 -0.19 c0.24 -0.09 0.28 -0.55 0.08 -0.85 -0.27 -0.41 -0.80 0.24 -0.61 0.75 0.08 0.20 0.21 0.23 0.53 0.11z"/>
  <path d="M34.72 49 c-0.24 -0.16 -0.21 -1.65 0.01 -1.53 0.08 0.04 0.12 0.21 0.11 0.40 -0.04 0.67 0.08 0.96 0.40 0.91 0.25 -0.04 0.29 -0.13 0.33 -0.73 0.04 -0.68 0.19 -0.91 0.33 -0.52 0.04 0.11 0.04 0.52 0 0.91 -0.07 0.72 -0.07 0.72 -0.53 0.72 -0.25 0 -0.55 -0.07 -0.65 -0.15z"/>
  <path d="M36.69 49.07 c-0.57 -0.24 -0.64 -1.16 -0.12 -1.53 0.36 -0.25 0.81 -0.25 1.01 -0.01 0.24 0.28 0.04 0.57 -0.53 0.80 -0.67 0.27 -0.56 0.53 0.16 0.44 0.59 -0.08 0.69 0.12 0.17 0.31 -0.19 0.08 -0.35 0.13 -0.36 0.12 -0.01 0 -0.16 -0.05 -0.33 -0.12z"/>
  <path d="M29.01 48.95 c-0.09 -0.15 -0.09 -1.55 0.01 -2.07 0.07 -0.35 0.11 -0.37 0.53 -0.31 0.27 0.05 0.59 0.19 0.72 0.31 0.32 0.29 0.33 0.96 0.03 1.21 -0.23 0.17 -0.23 0.19 0.07 0.39 0.27 0.20 0.41 0.59 0.20 0.59 -0.04 0 -0.28 -0.15 -0.52 -0.33 -0.24 -0.19 -0.49 -0.33 -0.57 -0.33 -0.08 0 -0.15 0.15 -0.15 0.33 0 0.33 -0.19 0.45 -0.32 0.21z m0.91 -1.08 c0.43 -0.16 0.44 -0.45 0.05 -0.72 -0.49 -0.35 -0.64 -0.27 -0.64 0.32 0 0.57 0.05 0.61 0.59 0.40z"/>
  <path d="M50.44 42.72 c-0.04 -0.11 0.05 -0.33 0.24 -0.53 0.44 -0.48 0.16 -0.71 -0.36 -0.28 -0.60 0.49 -0.92 0.56 -1.27 0.21 -0.21 -0.21 -0.27 -0.37 -0.20 -0.71 0.11 -0.55 0.51 -1.07 0.87 -1.12 0.36 -0.05 0.37 0.23 0.01 0.68 -0.52 0.67 -0.17 0.87 0.51 0.29 0.68 -0.57 1.23 -0.37 1.23 0.44 0 0.85 -0.79 1.64 -1.03 1.01z"/>
  <path d="M8.45 42.47 c-0.56 -0.23 -0.85 -0.68 -0.85 -1.29 0 -0.71 0.31 -0.65 0.65 0.09 0.29 0.64 0.60 0.87 0.84 0.63 0.09 -0.09 0.07 -0.32 -0.09 -0.73 -0.28 -0.75 -0.23 -1.27 0.20 -1.57 0.28 -0.21 0.41 -0.23 0.83 -0.12 1.35 0.39 2.09 2.65 0.85 2.67 -0.20 0 -0.23 -0.07 -0.16 -0.47 0.15 -0.73 -0.40 -1.53 -1.03 -1.53 -0.33 0 -0.37 0.40 -0.09 1.03 0.29 0.68 0.35 1.17 0.12 1.32 -0.29 0.17 -0.85 0.17 -1.27 -0.01z"/>
  <path d="M52.67 40.80 c-0.24 -0.15 -0.04 -0.57 0.31 -0.64 0.27 -0.05 0.45 0.51 0.21 0.65 -0.24 0.15 -0.28 0.15 -0.52 -0.01z"/>
  <path d="M51.15 40.07 c-0.36 -0.17 -0.76 -0.35 -0.89 -0.37 -0.31 -0.08 -0.47 -0.47 -0.29 -0.64 0.08 -0.08 0.40 -0.03 0.92 0.16 1.03 0.39 1.39 0.63 1.39 0.93 0 0.33 -0.31 0.31 -1.12 -0.08z"/>
  <path d="M7.99 38.92 c-0.61 -0.23 -0.85 -1.17 -0.41 -1.71 0.48 -0.61 1.97 -0.61 2.29 -0.01 0.37 0.71 0.01 1.51 -0.77 1.73 -0.57 0.16 -0.64 0.16 -1.11 -0.01z m1.13 -0.69 c0.31 -0.23 0.24 -0.80 -0.09 -0.87 -0.37 -0.08 -1.03 0.24 -1.03 0.49 0 0.51 0.64 0.72 1.12 0.37z"/>
  <path d="M51.73 38.47 c-0.25 -0.09 -0.67 -0.13 -0.89 -0.11 -0.33 0.05 -0.45 0.01 -0.52 -0.15 -0.05 -0.13 -0.03 -0.29 0.07 -0.39 0.08 -0.08 0.15 -0.33 0.15 -0.57 0 -0.59 0.45 -1.12 0.95 -1.12 0.49 0 1.11 0.31 1.37 0.69 0.28 0.40 0.27 1.17 -0.04 1.55 -0.28 0.32 -0.40 0.33 -1.08 0.09z m0.61 -1.20 c-0.43 -0.65 -1.28 -0.55 -1.28 0.15 0 0.25 0.07 0.32 0.37 0.33 0.20 0 0.48 0.05 0.63 0.11 0.39 0.16 0.55 -0.19 0.28 -0.59z"/>
  <path d="M7.27 35.97 c-0.43 -0.23 -0.60 -0.52 -0.60 -1.04 0 -0.51 0.19 -0.80 0.51 -0.80 0.15 0 0.17 0.11 0.11 0.45 -0.07 0.32 -0.03 0.52 0.12 0.67 0.35 0.35 0.84 0.41 1.13 0.15 0.32 -0.28 0.33 -0.57 0.07 -0.92 -0.47 -0.61 -0.01 -0.87 0.45 -0.27 0.67 0.84 0.13 1.92 -0.95 1.92 -0.32 0 -0.69 -0.08 -0.84 -0.16z"/>
  <path d="M50.97 35.37 c-0.28 -0.11 -0.20 -0.43 0.13 -0.49 0.16 -0.04 0.61 -0.09 1.01 -0.13 0.39 -0.04 0.75 -0.09 0.77 -0.13 0.04 -0.03 -0.01 -0.19 -0.09 -0.35 -0.13 -0.25 -0.25 -0.28 -0.84 -0.27 -1.05 0.05 -1.16 0.03 -1.16 -0.25 0 -0.19 0.13 -0.27 0.61 -0.33 0.35 -0.04 0.84 -0.08 1.09 -0.08 l0.47 0 -0.31 -0.33 c-0.21 -0.23 -0.47 -0.33 -0.92 -0.36 -0.51 -0.04 -0.61 -0.08 -0.61 -0.31 0 -0.24 0.11 -0.27 0.99 -0.31 1.04 -0.04 1.75 0.15 1.75 0.45 0 0.11 -0.08 0.19 -0.17 0.19 -0.15 0 -0.17 0.24 -0.15 1.11 0.03 0.60 0 1.17 -0.07 1.27 -0.20 0.32 -1.97 0.56 -2.51 0.33z"/>
  <path d="M5.56 33.11 c-0.05 -0.04 -0.09 -0.23 -0.09 -0.40 0 -0.21 0.08 -0.31 0.27 -0.31 0.33 0 0.48 0.33 0.27 0.60 -0.19 0.21 -0.31 0.25 -0.44 0.11z"/>
  <path d="M6.77 33.11 c-0.13 -0.03 -0.24 -0.17 -0.24 -0.31 0 -0.19 0.12 -0.28 0.44 -0.33 0.35 -0.05 1.49 -0.03 2 0.05 0.05 0 0.09 0.12 0.09 0.27 0 0.19 -0.13 0.27 -0.49 0.33 -0.56 0.08 -1.44 0.08 -1.80 -0.01z"/>
  <path d="M7.51 31.64 c-0.36 -0.07 -0.97 -0.76 -0.97 -1.09 0 -0.47 0.31 -1.11 0.59 -1.21 0.43 -0.16 0.69 0.07 0.87 0.69 0.08 0.32 0.20 0.67 0.28 0.77 0.23 0.35 0.40 -0.12 0.32 -0.83 -0.09 -0.68 0.03 -0.80 0.39 -0.40 0.13 0.15 0.23 0.48 0.23 0.81 0 0.45 -0.08 0.65 -0.39 0.96 -0.37 0.37 -0.61 0.43 -1.31 0.29z"/>
  <path d="M51.16 31.11 c-0.13 -0.04 -0.21 -0.13 -0.19 -0.21 0.08 -0.27 0.65 -0.47 1.60 -0.55 0.73 -0.07 0.89 -0.04 0.89 0.12 0 0.11 0.01 0.24 0.04 0.29 0.01 0.05 -0.39 0.17 -0.91 0.27 -1.01 0.17 -1.08 0.17 -1.44 0.08z"/>
  <path d="M54 30.60 c0 -0.37 0.28 -0.44 0.53 -0.13 0.20 0.24 0.07 0.47 -0.28 0.47 -0.19 0 -0.25 -0.09 -0.25 -0.33z"/>
  <path d="M50.72 29.83 c-0.12 -0.33 0.04 -0.47 0.85 -0.71 0.97 -0.29 1.11 -0.41 0.76 -0.67 -0.19 -0.15 -0.51 -0.19 -1.07 -0.16 -0.44 0.03 -0.81 0 -0.83 -0.05 -0.16 -0.47 0.33 -0.71 1.83 -0.87 l0.83 -0.08 -0.08 0.41 c-0.05 0.24 -0.04 0.44 0.04 0.49 0.21 0.12 0.17 0.95 -0.04 1.13 -0.11 0.08 -0.52 0.24 -0.91 0.33 -0.39 0.09 -0.84 0.23 -1 0.27 -0.21 0.07 -0.33 0.04 -0.39 -0.11z"/>
  <path d="M8.04 28.52 c-0.81 -0.24 -1.15 -1.04 -0.79 -1.88 0.07 -0.16 0.01 -0.24 -0.21 -0.31 -0.77 -0.21 -1.13 -0.57 -0.79 -0.80 0.07 -0.04 0.68 0.11 1.33 0.33 0.67 0.21 1.39 0.40 1.59 0.40 0.52 0 0.95 0.32 0.73 0.55 -0.09 0.09 -0.17 0.36 -0.17 0.60 0 0.61 -0.12 0.84 -0.55 1.05 -0.41 0.23 -0.53 0.23 -1.15 0.05z m1.08 -0.96 c0.17 -0.47 -0.07 -0.72 -0.72 -0.79 -0.37 -0.03 -0.48 0.01 -0.63 0.29 -0.15 0.29 -0.12 0.37 0.13 0.64 0.40 0.44 1.04 0.36 1.21 -0.15z"/>
  <path d="M50.13 26.75 c0 -0.20 0.13 -0.43 0.35 -0.57 l0.35 -0.25 -0.28 -0.53 c-0.24 -0.45 -0.35 -0.53 -0.84 -0.59 -0.47 -0.05 -0.57 -0.12 -0.57 -0.33 0 -0.21 0.12 -0.28 0.60 -0.35 0.33 -0.05 0.67 -0.04 0.73 0.01 0.08 0.05 0.47 0.13 0.87 0.19 1.12 0.15 1.73 0.33 1.73 0.55 0 0.11 -0.32 0.43 -0.69 0.71 -0.39 0.29 -0.97 0.75 -1.31 1.01 -0.71 0.56 -0.93 0.60 -0.93 0.16z"/>
  <path d="M8.89 25.33 c-0.49 -0.40 -0.69 -1.07 -0.45 -1.63 0.11 -0.24 0.29 -0.53 0.41 -0.64 0.21 -0.16 0.31 -0.15 0.85 0.16 0.35 0.19 0.80 0.35 1 0.35 0.52 -0.01 0.59 0.11 0.32 0.55 -0.12 0.21 -0.23 0.52 -0.23 0.67 0 0.75 -1.21 1.09 -1.91 0.55z m1.39 -0.77 c0.11 -0.27 0.05 -0.33 -0.49 -0.56 -0.79 -0.35 -0.85 -0.33 -0.85 0.07 0 0.77 1.11 1.17 1.35 0.49z"/>
  <path d="M10.37 22.63 c-0.68 -0.56 -0.79 -1.53 -0.23 -2.04 0.25 -0.23 0.24 -0.24 -0.21 -0.55 -0.47 -0.32 -0.61 -0.76 -0.29 -0.88 0.09 -0.04 0.68 0.32 1.29 0.80 0.63 0.48 1.27 0.92 1.44 0.99 0.40 0.15 0.53 0.52 0.25 0.68 -0.13 0.07 -0.23 0.21 -0.23 0.32 0 0.12 -0.17 0.39 -0.39 0.60 -0.49 0.48 -1.12 0.52 -1.64 0.08z m1.19 -0.52 c0.33 -0.44 0.29 -0.64 -0.19 -0.97 -0.45 -0.31 -0.51 -0.31 -0.73 -0.11 -0.29 0.27 -0.31 0.68 -0.01 1 0.25 0.28 0.75 0.32 0.93 0.08z"/>
  <path d="M47.12 21.60 c-0.43 -0.17 -0.87 -0.80 -0.83 -1.19 0.07 -0.51 0.35 -0.48 0.60 0.04 0.36 0.76 0.59 0.63 0.55 -0.31 -0.03 -0.48 0.03 -0.87 0.12 -0.96 0.23 -0.23 0.83 -0.03 1.27 0.44 0.41 0.44 0.48 0.84 0.16 0.96 -0.31 0.12 -0.32 0.11 -0.47 -0.32 -0.08 -0.21 -0.23 -0.40 -0.33 -0.40 -0.15 0 -0.17 0.15 -0.12 0.71 0.04 0.37 0.03 0.76 -0.03 0.84 -0.16 0.23 -0.60 0.32 -0.92 0.19z"/>
  <path d="M12.36 20.03 c-0.69 -0.72 -0.55 -1.79 0.31 -2.23 0.85 -0.44 1.21 0.32 0.65 1.41 l-0.27 0.55 0.31 -0.05 c0.20 -0.03 0.40 -0.23 0.57 -0.53 0.33 -0.64 0.60 -0.65 0.60 -0.05 0 0.35 -0.11 0.55 -0.47 0.87 -0.63 0.55 -1.21 0.56 -1.71 0.04z"/>
  <path d="M45.11 19.47 c-0.77 -0.31 -0.87 -1.20 -0.20 -1.89 0.28 -0.31 0.45 -0.37 0.97 -0.37 1.04 0 1.45 0.68 0.99 1.59 -0.27 0.52 -1.23 0.89 -1.76 0.68z m1.04 -0.81 c0.53 -0.53 0.03 -1.15 -0.61 -0.73 -0.44 0.28 -0.55 0.56 -0.33 0.81 0.23 0.28 0.61 0.25 0.95 -0.08z"/>
  <path d="M43.33 17.87 c0 -0.07 -0.15 -0.16 -0.33 -0.21 -0.47 -0.12 -1 -0.79 -1 -1.25 0 -0.60 0.71 -1.33 1.28 -1.33 0.48 0 1.12 0.24 1.12 0.43 0 0.25 0.36 0.07 0.60 -0.33 0.15 -0.24 0.36 -0.43 0.47 -0.43 0.35 0 0.29 0.41 -0.16 1.04 -0.24 0.33 -0.69 0.97 -1.01 1.43 -0.51 0.72 -0.96 1.03 -0.96 0.67z m0.20 -0.88 c0.11 -0.05 0.29 -0.25 0.41 -0.47 0.17 -0.35 0.17 -0.40 -0.08 -0.65 -0.33 -0.33 -0.60 -0.33 -0.93 0 -0.32 0.32 -0.35 0.71 -0.05 0.99 0.23 0.24 0.32 0.25 0.65 0.13z"/>
  <path d="M16.53 16.64 c-0.21 -0.29 -0.40 -0.60 -0.40 -0.65 0 -0.05 -0.21 -0.47 -0.48 -0.92 -0.56 -0.96 -0.52 -1.23 0.23 -1.52 0.95 -0.39 1.63 -0.19 1.85 0.53 0.19 0.53 -0.09 1.24 -0.61 1.59 l-0.33 0.21 0.28 0.35 c0.32 0.40 0.36 0.97 0.07 0.97 -0.11 0 -0.37 -0.25 -0.60 -0.56z m0.52 -1.87 c0.17 -0.29 0.17 -0.39 0.03 -0.56 -0.20 -0.24 -0.64 -0.28 -0.93 -0.09 -0.17 0.11 -0.16 0.20 0.05 0.61 0.31 0.55 0.57 0.56 0.85 0.04z"/>
  <path d="M19.28 15.57 c-0.35 -0.56 -0.77 -1.68 -0.72 -1.93 0.03 -0.15 0.16 -0.23 0.31 -0.21 0.13 0.01 0.43 -0.13 0.64 -0.31 0.21 -0.19 0.49 -0.32 0.61 -0.29 0.24 0.05 0.60 0.71 0.48 0.91 -0.11 0.17 -0.60 0.17 -0.60 0 0 -0.25 -0.28 -0.13 -0.43 0.20 -0.12 0.27 -0.09 0.47 0.13 1.05 0.15 0.40 0.24 0.76 0.20 0.80 -0.17 0.16 -0.44 0.07 -0.63 -0.21z"/>
  <path d="M38.80 15.27 c-0.09 -0.11 -0.36 -0.20 -0.60 -0.20 -0.93 0 -1.28 -1.23 -0.55 -1.99 0.43 -0.45 0.87 -0.56 1.48 -0.40 0.75 0.21 0.81 0.41 0.49 1.36 -0.16 0.45 -0.29 0.96 -0.29 1.13 0 0.33 -0.29 0.39 -0.53 0.09z m0.11 -1.25 c0.09 -0.28 0.16 -0.57 0.16 -0.67 0 -0.23 -0.60 -0.17 -0.83 0.09 -0.48 0.56 -0.37 1.09 0.23 1.09 0.23 0 0.32 -0.12 0.44 -0.52z"/>
  <path d="M21.76 14.57 c-0.09 -0.04 -0.25 -0.24 -0.36 -0.44 -0.61 -1.19 0.32 -2.49 1.39 -1.93 0.69 0.35 0.87 1.61 0.32 2.23 -0.20 0.23 -0.93 0.32 -1.35 0.15z m1.04 -1.08 c0 -0.56 -0.32 -0.93 -0.63 -0.75 -0.32 0.20 -0.39 0.89 -0.11 1.17 0.31 0.31 0.73 0.05 0.73 -0.43z"/>
  <path d="M34.73 13.97 c-0.04 -0.09 0.07 -0.65 0.23 -1.24 0.25 -0.89 0.36 -1.08 0.61 -1.11 0.16 -0.03 0.29 0.03 0.29 0.11 0 0.11 0.12 0.13 0.32 0.08 0.51 -0.12 1.01 0.12 1.01 0.49 0 0.44 -0.31 0.83 -0.59 0.72 -0.12 -0.05 -0.21 -0.21 -0.21 -0.36 0 -0.68 -0.72 -0.08 -0.99 0.83 -0.17 0.57 -0.55 0.84 -0.68 0.48z"/>
  <path d="M24.88 13.77 c-0.03 -0.13 -0.13 -0.59 -0.21 -1.01 -0.15 -0.72 -0.17 -0.76 -0.51 -0.73 -0.28 0.03 -0.37 -0.03 -0.40 -0.25 -0.03 -0.23 0.04 -0.32 0.28 -0.37 0.25 -0.07 0.31 -0.16 0.27 -0.40 -0.09 -0.48 0.23 -0.56 0.56 -0.15 0.16 0.20 0.37 0.36 0.48 0.35 0.39 -0.05 0.52 0.01 0.52 0.25 0 0.16 -0.12 0.28 -0.35 0.33 -0.29 0.08 -0.33 0.15 -0.27 0.45 0.04 0.20 0.12 0.68 0.16 1.07 0.08 0.64 0.07 0.69 -0.19 0.69 -0.15 0 -0.31 -0.11 -0.35 -0.23z"/>
  <path d="M32.27 13.31 c-0.32 -0.52 -0.33 -0.92 -0.07 -1.44 0.39 -0.75 1.31 -0.91 1.89 -0.32 0.29 0.29 0.33 0.43 0.27 0.93 -0.09 0.84 -0.51 1.25 -1.25 1.25 -0.51 0 -0.61 -0.05 -0.84 -0.43z m1.44 -0.87 c0.05 -0.51 -0.24 -0.79 -0.63 -0.57 -0.40 0.20 -0.49 0.75 -0.21 1.08 0.21 0.23 0.28 0.24 0.52 0.07 0.16 -0.09 0.29 -0.35 0.32 -0.57z"/>
  <path d="M26.97 13.41 c-1.09 -0.49 -0.43 -2.48 0.84 -2.48 0.41 0 0.99 0.37 0.99 0.64 0 0.28 -0.45 0.68 -1.01 0.89 -0.56 0.21 -0.60 0.25 -0.40 0.41 0.19 0.13 0.35 0.12 0.84 -0.04 0.71 -0.24 0.97 -0.09 0.61 0.33 -0.31 0.39 -1.28 0.51 -1.87 0.24z"/>
  <path d="M30.27 13.40 c-0.11 -0.13 -0.13 -0.44 -0.07 -1 l0.09 -0.80 -0.43 -0.15 c-0.51 -0.19 -0.49 -0.57 0.04 -0.63 0.28 -0.04 0.36 -0.12 0.36 -0.36 0 -0.17 0.07 -0.36 0.13 -0.40 0.21 -0.13 0.55 0.20 0.47 0.45 -0.05 0.16 0.05 0.25 0.36 0.35 0.56 0.17 0.57 0.51 0.04 0.60 -0.40 0.07 -0.40 0.08 -0.41 0.95 -0.01 1.13 -0.20 1.45 -0.59 0.99z"/>
 </g>
 <g fill="#5e320f">
  <path d="M27.17 43.87 c-1.45 -0.23 -2.03 -0.76 -2 -1.85 0 -0.33 0.08 -0.79 0.16 -1 0.11 -0.31 0.20 -0.36 0.44 -0.29 1.19 0.35 4.51 0.36 6.69 0.03 0.81 -0.12 1.56 -0.24 1.67 -0.28 0.16 -0.04 1.33 -0.19 1.87 -0.23 0.88 -0.07 1.20 0.32 1.20 1.47 0 0.49 -0.05 0.97 -0.11 1.05 -0.09 0.15 -0.59 0.25 -2.89 0.57 -4.15 0.59 -5.87 0.71 -7.03 0.53z"/>
  <path d="M37.07 30.25 c-2.47 -0.16 -3.03 -0.41 -4.03 -1.73 -0.33 -0.43 -0.36 -0.56 -0.33 -1.47 0.03 -0.93 0 -1.03 -0.40 -1.57 -0.24 -0.32 -0.44 -0.67 -0.44 -0.77 0 -0.29 0.48 -1.15 0.83 -1.47 0.72 -0.68 2.57 -1.16 3.33 -0.85 0.40 0.15 0.41 0.20 0.63 1.88 0.07 0.63 0.25 1.49 0.39 1.93 0.32 0.99 1.55 3.60 1.75 3.72 0.20 0.13 0.19 0.48 -0.01 0.45 -0.09 0 -0.87 -0.07 -1.71 -0.12z m-2.17 -2.01 c0.27 -0.29 0.36 -0.68 0.32 -1.41 -0.01 -0.17 -0.16 -0.45 -0.36 -0.64 -0.84 -0.85 -1.83 0.37 -1.31 1.63 0.12 0.28 0.28 0.56 0.37 0.61 0.28 0.19 0.71 0.11 0.97 -0.19z"/>
 </g>
</svg>